<svg width="267" height="357" viewBox="0 0 267 357" fill="none" xmlns="http://www.w3.org/2000/svg">
<path d="M138.695 75.1469L103.868 3.9459C103.386 2.96036 102.645 2.13154 101.728 1.55232C100.811 0.973105 99.754 0.666376 98.676 0.666504H5.80511C4.8156 0.666387 3.84249 0.924856 2.9782 1.41736C2.11391 1.90987 1.38714 2.62006 0.86692 3.48049C0.346696 4.34091 0.0502896 5.323 0.00585593 6.33348C-0.0385778 7.34396 0.170436 8.34927 0.613044 9.25393L61.2113 133.144C61.6486 134.037 62.2994 134.803 63.1036 135.371C63.9077 135.939 64.8391 136.29 65.8113 136.392C66.0098 136.412 66.2084 136.424 66.4034 136.424C67.2803 136.424 68.1459 136.221 68.9352 135.831C69.7245 135.44 70.4171 134.872 70.961 134.169C72.914 131.649 75.3964 129.609 78.2245 128.202C81.0526 126.795 84.154 126.056 87.2993 126.04C88.743 126.062 90.1813 126.224 91.5946 126.526C96.4726 127.519 101.508 127.361 106.317 126.064C111.126 124.767 115.583 122.366 119.347 119.043C119.908 118.538 120.368 117.927 120.702 117.244L138.695 80.4567C139.098 79.6323 139.308 78.7233 139.308 77.8017C139.308 76.8801 139.098 75.9712 138.695 75.1469Z" fill="#3363AD"/>
<path d="M266.133 3.47954C265.613 2.61943 264.886 1.90951 264.022 1.41718C263.158 0.924852 262.185 0.66645 261.196 0.666504H168.325C167.247 0.666376 166.19 0.973105 165.273 1.55232C164.356 2.13154 163.615 2.96036 163.133 3.9459L110.313 111.934C109.765 113.052 109.578 114.319 109.776 115.553C109.975 116.787 110.55 117.925 111.42 118.805C112.289 119.685 113.408 120.261 114.617 120.452C115.826 120.643 117.063 120.439 118.151 119.869C118.558 119.645 118.943 119.381 119.299 119.081C119.427 118.982 119.551 118.878 119.673 118.765C123.534 115.414 128.434 113.575 133.498 113.575C138.563 113.575 143.463 115.414 147.323 118.765C151.095 122.197 155.597 124.685 160.471 126.032C165.346 127.378 170.461 127.547 175.41 126.524C176.822 126.222 178.259 126.059 179.702 126.037C182.847 126.053 185.949 126.792 188.777 128.199C191.605 129.606 194.087 131.646 196.041 134.166C196.584 134.869 197.277 135.437 198.066 135.828C198.856 136.218 199.721 136.421 200.598 136.421C200.794 136.421 200.992 136.409 201.19 136.389C202.162 136.287 203.094 135.936 203.898 135.368C204.702 134.8 205.353 134.034 205.79 133.141L266.389 9.25097C266.83 8.34622 267.038 7.34133 266.993 6.33138C266.949 5.32143 266.653 4.33985 266.133 3.47954Z" fill="#3363AD"/>
<path d="M258.293 229.103C258.312 220.969 255.387 213.115 250.082 207.053C246.686 203.161 244.815 198.124 244.827 192.909C244.827 191.435 244.967 189.965 245.244 188.518C245.68 186.331 245.909 184.105 245.929 181.873C245.933 174.898 243.78 168.099 239.777 162.451C235.773 156.802 230.125 152.591 223.64 150.422C220.564 149.392 217.769 147.635 215.481 145.295C213.193 142.955 211.476 140.097 210.469 136.953C208.341 130.327 204.221 124.558 198.696 120.467C193.171 116.377 186.523 114.174 179.701 114.173C177.497 114.194 175.301 114.432 173.142 114.885C169.962 115.552 166.673 115.452 163.537 114.593C160.401 113.734 157.505 112.14 155.077 109.936C149.158 104.545 141.512 101.557 133.584 101.535C125.657 101.513 117.996 104.459 112.048 109.818L111.98 109.877C111.872 109.961 111.767 110.048 111.666 110.137C109.238 112.268 106.365 113.802 103.268 114.623C100.171 115.444 96.9307 115.53 93.796 114.874C91.656 114.428 89.479 114.194 87.2951 114.173C80.4727 114.175 73.8249 116.378 68.2999 120.47C62.7749 124.561 58.6549 130.331 56.5275 136.958C55.5184 140.104 53.7986 142.962 51.5075 145.302C49.2163 147.642 46.4182 149.398 43.3398 150.426C36.8576 152.598 31.2128 156.808 27.2123 162.456C23.2119 168.104 21.0606 174.901 21.0659 181.874C21.0853 184.106 21.3149 186.331 21.7514 188.519C22.0277 189.966 22.1672 191.436 22.1682 192.91C22.1812 198.121 20.3133 203.154 16.9221 207.045C11.6297 213.117 8.70462 220.966 8.70313 229.098C8.70163 237.231 11.6238 245.08 16.914 251.154C20.3094 255.046 22.1805 260.082 22.1687 265.297C22.168 266.771 22.0284 268.241 21.752 269.688C21.3161 271.875 21.0865 274.1 21.0665 276.333C21.0621 283.308 23.2155 290.107 27.2188 295.755C31.2221 301.404 36.8702 305.615 43.3555 307.784C46.4333 308.815 49.2301 310.573 51.5193 312.915C53.8085 315.257 55.5256 318.118 56.5316 321.265C58.6557 327.891 62.7748 333.661 68.3 337.751C73.8252 341.84 80.4737 344.039 87.2951 344.034C89.479 344.014 91.6561 343.779 93.796 343.333C96.9849 342.673 100.28 342.775 103.424 343.631C106.568 344.487 109.476 346.075 111.92 348.27C117.86 353.68 125.538 356.67 133.494 356.671C141.45 356.673 149.129 353.686 155.071 348.278C157.517 346.084 160.425 344.496 163.57 343.638C166.714 342.78 170.01 342.676 173.2 343.333C175.34 343.779 177.517 344.014 179.701 344.034C186.525 344.038 193.175 341.837 198.701 337.745C204.227 333.652 208.346 327.879 210.469 321.249C211.477 318.103 213.197 315.244 215.488 312.904C217.779 310.564 220.578 308.809 223.656 307.781C230.139 305.609 235.783 301.399 239.784 295.751C243.784 290.103 245.936 283.307 245.93 276.334C245.91 274.101 245.681 271.876 245.245 269.688C244.968 268.242 244.829 266.771 244.828 265.297C244.816 260.086 246.684 255.054 250.074 251.162C255.384 245.098 258.311 237.241 258.293 229.103Z" fill="#FFBD69"/>
<path d="M210.195 207.395C209.555 205.383 208.4 203.583 206.851 202.181C205.302 200.779 203.414 199.825 201.383 199.419L162.768 191.695L143.648 156.537C142.642 154.688 141.171 153.148 139.387 152.075C137.603 151.003 135.571 150.437 133.502 150.437C131.432 150.437 129.4 151.003 127.616 152.075C125.832 153.148 124.361 154.688 123.355 156.537L104.236 191.695L65.62 199.419C63.5889 199.825 61.7011 200.779 60.1519 202.182C58.6027 203.584 57.4484 205.385 56.8087 207.397C56.169 209.409 56.0671 211.559 56.5135 213.625C56.9599 215.69 57.9384 217.596 59.3477 219.146L86.1479 248.598L81.4005 288.53C81.1513 290.63 81.4558 292.76 82.2826 294.699C83.1094 296.639 84.4284 298.317 86.1029 299.56C87.7774 300.803 89.7466 301.566 91.8065 301.77C93.8664 301.974 95.9422 301.611 97.8189 300.719L133.502 283.764L169.184 300.719C171.061 301.611 173.137 301.974 175.197 301.77C177.257 301.566 179.227 300.803 180.901 299.56C182.576 298.316 183.895 296.638 184.721 294.698C185.548 292.759 185.852 290.628 185.603 288.528L180.855 248.599L207.653 219.147C209.063 217.597 210.042 215.691 210.489 213.624C210.936 211.558 210.834 209.407 210.195 207.395Z" fill="#F37121"/>
</svg>
